# xmcd
#
# Track frame offsets: 
#        150
#        4185
#        23785
#        37035
#        61066
#        77649
#        93325
#        95689
#        117487
#        133541
#        162026
#        174877
#        190553
#        205998
#        216574
#        230804
#        257677
#
# Disc length: 4014 seconds
#
# Revision: 1
# Processed by: cddbd v1.5.2PL0 Copyright (c) Steve Scherf et al.
# Submitted via: ExactAudioCopy v0.95b4
#
DISCID=e20fac11
DTITLE=Mari Do - Ceu
DYEAR=2005
DGENRE=General Latin - Popular
TTITLE0=Vinheta Qeubrante
TTITLE1=Lenda
TTITLE2=Malemolencia
TTITLE3=Roda
TTITLE4=Rainha
TTITLE5=10 contados
TTITLE6=Vinheta Dorival
TTITLE7=Mais Um Lamento
TTITLE8=Concrete Jungle
TTITLE9=Veu Da Noite
TTITLE10=Valsa Pra Biu Roque
TTITLE11=Ave Cruz
TTITLE12=O Roco Da Cuica
TTITLE13=Bobagem
TTITLE14=Samba Na Sola
TTITLE15=Nacao Postal
TTITLE16=Data track
EXTD=
EXTT0=
EXTT1=
EXTT2=
EXTT3=
EXTT4=
EXTT5=
EXTT6=
EXTT7=
EXTT8=
EXTT9=
EXTT10=
EXTT11=
EXTT12=
EXTT13=
EXTT14=
EXTT15=
EXTT16=
PLAYORDER=
